<svg xmlns="http://www.w3.org/2000/svg" xmlns:xlink="http://www.w3.org/1999/xlink" width="1584" zoomAndPan="magnify" viewBox="0 0 1188 1033.499974" height="1378" preserveAspectRatio="xMidYMid meet" version="1.0"><defs><g/></defs><g fill="#4f2d7f" fill-opacity="1"><g transform="translate(198.38265, 646.030443)"><g><path d="M 243.765625 -342.03125 L 327.15625 -88.6875 L 402.5625 -371.765625 L 441.875 -371.765625 L 441.875 -362.203125 L 344.6875 0 L 314.9375 0 L 226.25 -269.796875 L 137.546875 0 L 107.8125 0 L 10.625 -362.203125 L 10.625 -371.765625 L 49.921875 -371.765625 L 125.875 -88.6875 L 208.71875 -342.03125 Z M 243.765625 -342.03125 "/></g></g></g><g fill="#4f2d7f" fill-opacity="1"><g transform="translate(616.878344, 646.030443)"><g><path d="M 42.484375 0 L 42.484375 -371.765625 L 82.84375 -371.765625 L 82.84375 0 Z M 42.484375 0 "/></g></g></g><g fill="#4f2d7f" fill-opacity="1"><g transform="translate(708.225053, 646.030443)"><g><path d="M 42.484375 0 L 42.484375 -371.765625 L 247.484375 -371.765625 L 247.484375 -336.71875 L 82.84375 -336.71875 L 82.84375 -200.75 L 231.5625 -200.75 L 231.5625 -165.703125 L 82.84375 -165.703125 L 82.84375 -35.046875 L 252.796875 -35.046875 L 252.796875 0 Z M 42.484375 0 "/></g></g></g><path stroke-linecap="butt" transform="matrix(0.749637, 0.000000000000000646, -0.000000000000000646, 0.749637, 198.38265, 124.028088)" fill="none" stroke-linejoin="miter" d="M 0.000217066 14.500813 L 1054.901019 14.500813 " stroke="#4f2d7f" stroke-width="29" stroke-opacity="1" stroke-miterlimit="4"/><path stroke-linecap="butt" transform="matrix(0.749637, 0.000000000000000162, -0.000000000000000162, 0.749637, 198.38265, 813.078088)" fill="none" stroke-linejoin="miter" d="M 0.000217066 14.501854 L 1054.901019 14.501854 " stroke="#4f2d7f" stroke-width="29" stroke-opacity="1" stroke-miterlimit="4"/></svg>