<svg xmlns="http://www.w3.org/2000/svg" xmlns:xlink="http://www.w3.org/1999/xlink" width="1597" zoomAndPan="magnify" viewBox="0 0 1197.75 567.000005" height="756" preserveAspectRatio="xMidYMid meet" version="1.0"><defs><g/></defs><g fill="#ffffff" fill-opacity="1"><g transform="translate(73.330117, 248.088418)"><g><path d="M 93.609375 -131.34375 L 125.640625 -34.0625 L 154.59375 -142.765625 L 169.6875 -142.765625 L 169.6875 -139.09375 L 132.359375 0 L 120.9375 0 L 86.890625 -103.609375 L 52.828125 0 L 41.40625 0 L 4.078125 -139.09375 L 4.078125 -142.765625 L 19.171875 -142.765625 L 48.34375 -34.0625 L 80.15625 -131.34375 Z M 93.609375 -131.34375 "/></g></g></g><g fill="#ffffff" fill-opacity="1"><g transform="translate(234.040689, 248.088418)"><g><path d="M 57.109375 2.046875 C 42.421875 2.046875 31.269531 -2.203125 23.65625 -10.703125 C 16.039062 -19.203125 12.234375 -32.628906 12.234375 -50.984375 C 12.234375 -69.335938 16.039062 -82.765625 23.65625 -91.265625 C 31.269531 -99.765625 42.421875 -104.015625 57.109375 -104.015625 C 71.796875 -104.015625 82.941406 -99.765625 90.546875 -91.265625 C 98.160156 -82.765625 101.96875 -69.335938 101.96875 -50.984375 C 101.96875 -32.628906 98.160156 -19.203125 90.546875 -10.703125 C 82.941406 -2.203125 71.796875 2.046875 57.109375 2.046875 Z M 57.109375 -90.5625 C 47.316406 -90.5625 39.972656 -87.5 35.078125 -81.375 C 30.179688 -75.257812 27.734375 -65.128906 27.734375 -50.984375 C 27.734375 -36.847656 30.179688 -26.71875 35.078125 -20.59375 C 39.972656 -14.476562 47.316406 -11.421875 57.109375 -11.421875 C 66.898438 -11.421875 74.238281 -14.476562 79.125 -20.59375 C 84.019531 -26.71875 86.46875 -36.847656 86.46875 -50.984375 C 86.46875 -65.128906 84.019531 -75.257812 79.125 -81.375 C 74.238281 -87.5 66.898438 -90.5625 57.109375 -90.5625 Z M 57.109375 -90.5625 "/></g></g></g><g fill="#ffffff" fill-opacity="1"><g transform="translate(335.198611, 248.088418)"><g><path d="M 92.59375 0 L 77.09375 0 L 77.09375 -67.71875 C 77.09375 -82.945312 70.632812 -90.5625 57.71875 -90.5625 C 53.769531 -90.5625 50.097656 -89.8125 46.703125 -88.3125 C 43.304688 -86.8125 40.347656 -84.429688 37.828125 -81.171875 C 35.316406 -77.910156 33.347656 -73.796875 31.921875 -68.828125 C 30.492188 -63.867188 29.78125 -57.921875 29.78125 -50.984375 L 29.78125 0 L 14.28125 0 L 14.28125 -101.96875 L 29.78125 -101.96875 L 29.78125 -84.234375 C 32.5 -90.617188 36.441406 -95.507812 41.609375 -98.90625 C 46.773438 -102.3125 53.300781 -104.015625 61.1875 -104.015625 C 77.363281 -104.015625 87.289062 -96.804688 90.96875 -82.390625 C 94.226562 -90.003906 98.816406 -95.507812 104.734375 -98.90625 C 110.648438 -102.3125 117.484375 -104.015625 125.234375 -104.015625 C 145.347656 -104.015625 155.40625 -92.59375 155.40625 -69.75 L 155.40625 0 L 139.90625 0 L 139.90625 -69.34375 C 139.90625 -76.957031 138.375 -82.394531 135.3125 -85.65625 C 132.257812 -88.925781 127.8125 -90.5625 121.96875 -90.5625 C 117.882812 -90.5625 114.039062 -89.773438 110.4375 -88.203125 C 106.832031 -86.640625 103.703125 -84.226562 101.046875 -80.96875 C 98.398438 -77.707031 96.328125 -73.59375 94.828125 -68.625 C 93.335938 -63.664062 92.59375 -57.785156 92.59375 -50.984375 Z M 92.59375 0 "/></g></g></g><g fill="#ffffff" fill-opacity="1"><g transform="translate(491.830242, 248.088418)"><g><path d="M 92.390625 -45.6875 L 27.9375 -45.6875 C 28.625 -33.3125 31.445312 -24.503906 36.40625 -19.265625 C 41.363281 -14.035156 48.671875 -11.421875 58.328125 -11.421875 C 64.992188 -11.421875 70.875 -12.441406 75.96875 -14.484375 C 81.070312 -16.523438 85.253906 -18.90625 88.515625 -21.625 L 92.1875 -21.625 L 92.390625 -7.34375 C 88.722656 -4.625 84.066406 -2.378906 78.421875 -0.609375 C 72.773438 1.160156 66.078125 2.046875 58.328125 2.046875 C 42.421875 2.046875 30.757812 -2.335938 23.34375 -11.109375 C 15.9375 -19.878906 12.234375 -33.304688 12.234375 -51.390625 C 12.234375 -69.890625 15.867188 -83.285156 23.140625 -91.578125 C 30.421875 -99.867188 40.859375 -104.015625 54.453125 -104.015625 C 68.046875 -104.015625 78.207031 -100.070312 84.9375 -92.1875 C 91.675781 -84.300781 95.046875 -72.742188 95.046875 -57.515625 L 95.046875 -48.34375 Z M 79.546875 -59.140625 L 79.546875 -60.171875 C 79.546875 -70.097656 77.4375 -77.644531 73.21875 -82.8125 C 69 -87.976562 62.675781 -90.5625 54.25 -90.5625 C 46.363281 -90.5625 40.210938 -88.078125 35.796875 -83.109375 C 31.378906 -78.148438 28.757812 -70.160156 27.9375 -59.140625 Z M 79.546875 -59.140625 "/></g></g></g><g fill="#ffffff" fill-opacity="1"><g transform="translate(584.830234, 248.088418)"><g><path d="M 14.28125 -101.96875 L 29.78125 -101.96875 L 29.78125 -84.234375 C 32.5 -90.617188 36.539062 -95.507812 41.90625 -98.90625 C 47.28125 -102.3125 54.046875 -104.015625 62.203125 -104.015625 C 72.804688 -104.015625 80.863281 -101.019531 86.375 -95.03125 C 91.882812 -89.050781 94.640625 -80.082031 94.640625 -68.125 L 94.640625 0 L 79.140625 0 L 79.140625 -67.71875 C 79.140625 -82.945312 72.472656 -90.5625 59.140625 -90.5625 C 54.929688 -90.5625 51.054688 -89.8125 47.515625 -88.3125 C 43.984375 -86.8125 40.890625 -84.429688 38.234375 -81.171875 C 35.585938 -77.910156 33.515625 -73.796875 32.015625 -68.828125 C 30.523438 -63.867188 29.78125 -57.921875 29.78125 -50.984375 L 29.78125 0 L 14.28125 0 Z M 14.28125 -101.96875 "/></g></g></g><path stroke-linecap="butt" transform="matrix(0.74868, 0, 0, 0.74868, 77.002104, 53.903194)" fill="none" stroke-linejoin="miter" d="M 0.00240755 5.49813 L 314.399684 5.49813 " stroke="#ffffff" stroke-width="11" stroke-opacity="1" stroke-miterlimit="4"/><g fill="#ffffff" fill-opacity="1"><g transform="translate(70.475777, 417.243258)"><g><path d="M 16.3125 -136.65625 L 16.3125 -148.890625 L 24.46875 -148.890625 L 24.46875 -136.65625 Z M 17.546875 0 L 17.546875 -101.96875 L 23.25 -101.96875 L 23.25 0 Z M 17.546875 0 "/></g></g></g><g fill="#ffffff" fill-opacity="1"><g transform="translate(98.21258, 417.243258)"><g><path d="M 17.546875 -101.96875 L 23.25 -101.96875 L 23.25 -79.140625 C 24.476562 -82.535156 26.144531 -85.726562 28.25 -88.71875 C 30.351562 -91.707031 32.898438 -94.320312 35.890625 -96.5625 C 38.878906 -98.8125 42.378906 -100.613281 46.390625 -101.96875 C 50.410156 -103.332031 55.003906 -104.015625 60.171875 -104.015625 C 70.503906 -104.015625 78.421875 -101.160156 83.921875 -95.453125 C 89.429688 -89.742188 92.1875 -81.109375 92.1875 -69.546875 L 92.1875 0 L 86.46875 0 L 86.46875 -69.34375 C 86.46875 -88.925781 77.632812 -98.71875 59.96875 -98.71875 C 54.800781 -98.71875 49.972656 -97.832031 45.484375 -96.0625 C 40.992188 -94.289062 37.117188 -91.46875 33.859375 -87.59375 C 30.597656 -83.71875 28.015625 -78.789062 26.109375 -72.8125 C 24.203125 -66.832031 23.25 -59.625 23.25 -51.1875 L 23.25 0 L 17.546875 0 Z M 17.546875 -101.96875 "/></g></g></g><g fill="#ffffff" fill-opacity="1"><g transform="translate(194.883657, 417.243258)"><g/></g></g><g fill="#ffffff" fill-opacity="1"><g transform="translate(246.890245, 417.243258)"><g><path d="M 90.5625 -49.765625 L 20.796875 -49.765625 C 20.796875 -32.898438 23.957031 -20.929688 30.28125 -13.859375 C 36.601562 -6.796875 45.953125 -3.265625 58.328125 -3.265625 C 64.453125 -3.265625 69.859375 -3.941406 74.546875 -5.296875 C 79.234375 -6.660156 83.414062 -8.5 87.09375 -10.8125 L 89.53125 -10.8125 L 89.53125 -5.5 C 86 -3.195312 81.375 -1.363281 75.65625 0 C 69.945312 1.363281 64.035156 2.046875 57.921875 2.046875 C 43.097656 2.046875 32.253906 -2.234375 25.390625 -10.796875 C 18.523438 -19.367188 15.09375 -32.695312 15.09375 -50.78125 C 15.09375 -69.269531 18.523438 -82.765625 25.390625 -91.265625 C 32.253906 -99.765625 41.875 -104.015625 54.25 -104.015625 C 66.21875 -104.015625 75.53125 -100.410156 82.1875 -93.203125 C 88.851562 -85.992188 92.1875 -75.390625 92.1875 -61.390625 L 92.1875 -51.390625 Z M 86.46875 -55.265625 L 86.46875 -60.78125 C 86.46875 -73.289062 83.816406 -82.738281 78.515625 -89.125 C 73.210938 -95.519531 65.257812 -98.71875 54.65625 -98.71875 C 44.050781 -98.71875 35.894531 -95.28125 30.1875 -88.40625 C 24.476562 -81.539062 21.347656 -70.492188 20.796875 -55.265625 Z M 86.46875 -55.265625 "/></g></g></g><g fill="#ffffff" fill-opacity="1"><g transform="translate(339.890238, 417.243258)"><g><path d="M 17.546875 -101.96875 L 23.25 -101.96875 L 23.25 -79.140625 C 24.476562 -82.535156 26.144531 -85.726562 28.25 -88.71875 C 30.351562 -91.707031 32.898438 -94.320312 35.890625 -96.5625 C 38.878906 -98.8125 42.378906 -100.613281 46.390625 -101.96875 C 50.410156 -103.332031 55.003906 -104.015625 60.171875 -104.015625 C 70.503906 -104.015625 78.421875 -101.160156 83.921875 -95.453125 C 89.429688 -89.742188 92.1875 -81.109375 92.1875 -69.546875 L 92.1875 0 L 86.46875 0 L 86.46875 -69.34375 C 86.46875 -88.925781 77.632812 -98.71875 59.96875 -98.71875 C 54.800781 -98.71875 49.972656 -97.832031 45.484375 -96.0625 C 40.992188 -94.289062 37.117188 -91.46875 33.859375 -87.59375 C 30.597656 -83.71875 28.015625 -78.789062 26.109375 -72.8125 C 24.203125 -66.832031 23.25 -59.625 23.25 -51.1875 L 23.25 0 L 17.546875 0 Z M 17.546875 -101.96875 "/></g></g></g><g fill="#ffffff" fill-opacity="1"><g transform="translate(436.561337, 417.243258)"><g><path d="M 15.5 -69.75 C 15.5 -80.757812 18.523438 -89.222656 24.578125 -95.140625 C 30.628906 -101.054688 39.09375 -104.015625 49.96875 -104.015625 C 61.25 -104.015625 69.882812 -100.890625 75.875 -94.640625 L 86.890625 -110.140625 L 92.1875 -110.140625 L 92.1875 -107.6875 L 79.546875 -89.9375 C 82.941406 -84.226562 84.640625 -77.5 84.640625 -69.75 C 84.640625 -58.875 81.613281 -50.476562 75.5625 -44.5625 C 69.507812 -38.644531 60.976562 -35.6875 49.96875 -35.6875 C 44.394531 -35.6875 39.363281 -36.503906 34.875 -38.140625 L 23.453125 -24.875 C 22.367188 -23.65625 21.519531 -22.46875 20.90625 -21.3125 C 20.289062 -20.15625 19.984375 -18.832031 19.984375 -17.34375 C 19.984375 -13.394531 22.769531 -11.421875 28.34375 -11.421875 L 72 -11.421875 C 85.457031 -11.421875 92.1875 -4.691406 92.1875 8.765625 C 92.1875 14.203125 91.128906 18.820312 89.015625 22.625 C 86.910156 26.4375 83.953125 29.53125 80.140625 31.90625 C 76.335938 34.289062 71.75 36.023438 66.375 37.109375 C 61.007812 38.203125 55.132812 38.75 48.75 38.75 C 35.5625 38.75 25.429688 36.570312 18.359375 32.21875 C 11.285156 27.875 7.75 21.210938 7.75 12.234375 C 7.75 7.066406 8.867188 2.851562 11.109375 -0.40625 C 13.359375 -3.664062 16.316406 -6.113281 19.984375 -7.75 C 18.222656 -8.425781 16.832031 -9.582031 15.8125 -11.21875 C 14.789062 -12.851562 14.28125 -14.894531 14.28125 -17.34375 C 14.28125 -20.875 15.84375 -24.40625 18.96875 -27.9375 L 29.78125 -40.59375 C 25.15625 -43.3125 21.617188 -47.113281 19.171875 -52 C 16.722656 -56.894531 15.5 -62.8125 15.5 -69.75 Z M 21.21875 -69.75 C 21.21875 -60.363281 23.660156 -53.191406 28.546875 -48.234375 C 33.441406 -43.273438 40.582031 -40.796875 49.96875 -40.796875 C 59.351562 -40.796875 66.523438 -43.273438 71.484375 -48.234375 C 76.453125 -53.191406 78.9375 -60.363281 78.9375 -69.75 C 78.9375 -79.132812 76.453125 -86.304688 71.484375 -91.265625 C 66.523438 -96.234375 59.351562 -98.71875 49.96875 -98.71875 C 40.582031 -98.71875 33.441406 -96.234375 28.546875 -91.265625 C 23.660156 -86.304688 21.21875 -79.132812 21.21875 -69.75 Z M 28.34375 -6.125 C 24 -5.03125 20.429688 -3.019531 17.640625 -0.09375 C 14.847656 2.820312 13.453125 6.863281 13.453125 12.03125 C 13.453125 16.382812 14.503906 19.953125 16.609375 22.734375 C 18.722656 25.523438 21.445312 27.703125 24.78125 29.265625 C 28.113281 30.828125 31.882812 31.914062 36.09375 32.53125 C 40.3125 33.144531 44.53125 33.453125 48.75 33.453125 C 54.1875 33.453125 59.210938 33.007812 63.828125 32.125 C 68.453125 31.238281 72.429688 29.804688 75.765625 27.828125 C 79.097656 25.859375 81.710938 23.273438 83.609375 20.078125 C 85.515625 16.890625 86.46875 13.050781 86.46875 8.5625 C 86.46875 3.9375 85.347656 0.332031 83.109375 -2.25 C 80.867188 -4.832031 77.164062 -6.125 72 -6.125 Z M 28.34375 -6.125 "/></g></g></g><g fill="#ffffff" fill-opacity="1"><g transform="translate(523.442894, 417.243258)"><g><path d="M 16.3125 -136.65625 L 16.3125 -148.890625 L 24.46875 -148.890625 L 24.46875 -136.65625 Z M 17.546875 0 L 17.546875 -101.96875 L 23.25 -101.96875 L 23.25 0 Z M 17.546875 0 "/></g></g></g><g fill="#ffffff" fill-opacity="1"><g transform="translate(551.17968, 417.243258)"><g><path d="M 17.546875 -101.96875 L 23.25 -101.96875 L 23.25 -79.140625 C 24.476562 -82.535156 26.144531 -85.726562 28.25 -88.71875 C 30.351562 -91.707031 32.898438 -94.320312 35.890625 -96.5625 C 38.878906 -98.8125 42.378906 -100.613281 46.390625 -101.96875 C 50.410156 -103.332031 55.003906 -104.015625 60.171875 -104.015625 C 70.503906 -104.015625 78.421875 -101.160156 83.921875 -95.453125 C 89.429688 -89.742188 92.1875 -81.109375 92.1875 -69.546875 L 92.1875 0 L 86.46875 0 L 86.46875 -69.34375 C 86.46875 -88.925781 77.632812 -98.71875 59.96875 -98.71875 C 54.800781 -98.71875 49.972656 -97.832031 45.484375 -96.0625 C 40.992188 -94.289062 37.117188 -91.46875 33.859375 -87.59375 C 30.597656 -83.71875 28.015625 -78.789062 26.109375 -72.8125 C 24.203125 -66.832031 23.25 -59.625 23.25 -51.1875 L 23.25 0 L 17.546875 0 Z M 17.546875 -101.96875 "/></g></g></g><g fill="#ffffff" fill-opacity="1"><g transform="translate(647.850779, 417.243258)"><g><path d="M 90.5625 -49.765625 L 20.796875 -49.765625 C 20.796875 -32.898438 23.957031 -20.929688 30.28125 -13.859375 C 36.601562 -6.796875 45.953125 -3.265625 58.328125 -3.265625 C 64.453125 -3.265625 69.859375 -3.941406 74.546875 -5.296875 C 79.234375 -6.660156 83.414062 -8.5 87.09375 -10.8125 L 89.53125 -10.8125 L 89.53125 -5.5 C 86 -3.195312 81.375 -1.363281 75.65625 0 C 69.945312 1.363281 64.035156 2.046875 57.921875 2.046875 C 43.097656 2.046875 32.253906 -2.234375 25.390625 -10.796875 C 18.523438 -19.367188 15.09375 -32.695312 15.09375 -50.78125 C 15.09375 -69.269531 18.523438 -82.765625 25.390625 -91.265625 C 32.253906 -99.765625 41.875 -104.015625 54.25 -104.015625 C 66.21875 -104.015625 75.53125 -100.410156 82.1875 -93.203125 C 88.851562 -85.992188 92.1875 -75.390625 92.1875 -61.390625 L 92.1875 -51.390625 Z M 86.46875 -55.265625 L 86.46875 -60.78125 C 86.46875 -73.289062 83.816406 -82.738281 78.515625 -89.125 C 73.210938 -95.519531 65.257812 -98.71875 54.65625 -98.71875 C 44.050781 -98.71875 35.894531 -95.28125 30.1875 -88.40625 C 24.476562 -81.539062 21.347656 -70.492188 20.796875 -55.265625 Z M 86.46875 -55.265625 "/></g></g></g><g fill="#ffffff" fill-opacity="1"><g transform="translate(740.850772, 417.243258)"><g><path d="M 90.5625 -49.765625 L 20.796875 -49.765625 C 20.796875 -32.898438 23.957031 -20.929688 30.28125 -13.859375 C 36.601562 -6.796875 45.953125 -3.265625 58.328125 -3.265625 C 64.453125 -3.265625 69.859375 -3.941406 74.546875 -5.296875 C 79.234375 -6.660156 83.414062 -8.5 87.09375 -10.8125 L 89.53125 -10.8125 L 89.53125 -5.5 C 86 -3.195312 81.375 -1.363281 75.65625 0 C 69.945312 1.363281 64.035156 2.046875 57.921875 2.046875 C 43.097656 2.046875 32.253906 -2.234375 25.390625 -10.796875 C 18.523438 -19.367188 15.09375 -32.695312 15.09375 -50.78125 C 15.09375 -69.269531 18.523438 -82.765625 25.390625 -91.265625 C 32.253906 -99.765625 41.875 -104.015625 54.25 -104.015625 C 66.21875 -104.015625 75.53125 -100.410156 82.1875 -93.203125 C 88.851562 -85.992188 92.1875 -75.390625 92.1875 -61.390625 L 92.1875 -51.390625 Z M 86.46875 -55.265625 L 86.46875 -60.78125 C 86.46875 -73.289062 83.816406 -82.738281 78.515625 -89.125 C 73.210938 -95.519531 65.257812 -98.71875 54.65625 -98.71875 C 44.050781 -98.71875 35.894531 -95.28125 30.1875 -88.40625 C 24.476562 -81.539062 21.347656 -70.492188 20.796875 -55.265625 Z M 86.46875 -55.265625 "/></g></g></g><g fill="#ffffff" fill-opacity="1"><g transform="translate(833.850764, 417.243258)"><g><path d="M 58.125 -98.3125 C 47.113281 -98.3125 38.546875 -93.484375 32.421875 -83.828125 C 26.304688 -74.171875 23.25 -60.4375 23.25 -42.625 L 23.25 0 L 17.546875 0 L 17.546875 -101.96875 L 23.25 -101.96875 L 23.25 -75.671875 C 23.925781 -78.796875 25.082031 -82.019531 26.71875 -85.34375 C 28.351562 -88.675781 30.5625 -91.703125 33.34375 -94.421875 C 36.132812 -97.148438 39.566406 -99.429688 43.640625 -101.265625 C 47.722656 -103.097656 52.617188 -104.015625 58.328125 -104.015625 C 61.179688 -104.015625 63.660156 -103.773438 65.765625 -103.296875 C 67.878906 -102.828125 69.753906 -102.25 71.390625 -101.5625 L 71.390625 -96.46875 L 68.9375 -96.46875 C 65.257812 -97.695312 61.65625 -98.3125 58.125 -98.3125 Z M 58.125 -98.3125 "/></g></g></g><g fill="#ffffff" fill-opacity="1"><g transform="translate(902.377106, 417.243258)"><g><path d="M 16.3125 -136.65625 L 16.3125 -148.890625 L 24.46875 -148.890625 L 24.46875 -136.65625 Z M 17.546875 0 L 17.546875 -101.96875 L 23.25 -101.96875 L 23.25 0 Z M 17.546875 0 "/></g></g></g><g fill="#ffffff" fill-opacity="1"><g transform="translate(930.113892, 417.243258)"><g><path d="M 17.546875 -101.96875 L 23.25 -101.96875 L 23.25 -79.140625 C 24.476562 -82.535156 26.144531 -85.726562 28.25 -88.71875 C 30.351562 -91.707031 32.898438 -94.320312 35.890625 -96.5625 C 38.878906 -98.8125 42.378906 -100.613281 46.390625 -101.96875 C 50.410156 -103.332031 55.003906 -104.015625 60.171875 -104.015625 C 70.503906 -104.015625 78.421875 -101.160156 83.921875 -95.453125 C 89.429688 -89.742188 92.1875 -81.109375 92.1875 -69.546875 L 92.1875 0 L 86.46875 0 L 86.46875 -69.34375 C 86.46875 -88.925781 77.632812 -98.71875 59.96875 -98.71875 C 54.800781 -98.71875 49.972656 -97.832031 45.484375 -96.0625 C 40.992188 -94.289062 37.117188 -91.46875 33.859375 -87.59375 C 30.597656 -83.71875 28.015625 -78.789062 26.109375 -72.8125 C 24.203125 -66.832031 23.25 -59.625 23.25 -51.1875 L 23.25 0 L 17.546875 0 Z M 17.546875 -101.96875 "/></g></g></g><g fill="#ffffff" fill-opacity="1"><g transform="translate(1026.784945, 417.243258)"><g><path d="M 15.5 -69.75 C 15.5 -80.757812 18.523438 -89.222656 24.578125 -95.140625 C 30.628906 -101.054688 39.09375 -104.015625 49.96875 -104.015625 C 61.25 -104.015625 69.882812 -100.890625 75.875 -94.640625 L 86.890625 -110.140625 L 92.1875 -110.140625 L 92.1875 -107.6875 L 79.546875 -89.9375 C 82.941406 -84.226562 84.640625 -77.5 84.640625 -69.75 C 84.640625 -58.875 81.613281 -50.476562 75.5625 -44.5625 C 69.507812 -38.644531 60.976562 -35.6875 49.96875 -35.6875 C 44.394531 -35.6875 39.363281 -36.503906 34.875 -38.140625 L 23.453125 -24.875 C 22.367188 -23.65625 21.519531 -22.46875 20.90625 -21.3125 C 20.289062 -20.15625 19.984375 -18.832031 19.984375 -17.34375 C 19.984375 -13.394531 22.769531 -11.421875 28.34375 -11.421875 L 72 -11.421875 C 85.457031 -11.421875 92.1875 -4.691406 92.1875 8.765625 C 92.1875 14.203125 91.128906 18.820312 89.015625 22.625 C 86.910156 26.4375 83.953125 29.53125 80.140625 31.90625 C 76.335938 34.289062 71.75 36.023438 66.375 37.109375 C 61.007812 38.203125 55.132812 38.75 48.75 38.75 C 35.5625 38.75 25.429688 36.570312 18.359375 32.21875 C 11.285156 27.875 7.75 21.210938 7.75 12.234375 C 7.75 7.066406 8.867188 2.851562 11.109375 -0.40625 C 13.359375 -3.664062 16.316406 -6.113281 19.984375 -7.75 C 18.222656 -8.425781 16.832031 -9.582031 15.8125 -11.21875 C 14.789062 -12.851562 14.28125 -14.894531 14.28125 -17.34375 C 14.28125 -20.875 15.84375 -24.40625 18.96875 -27.9375 L 29.78125 -40.59375 C 25.15625 -43.3125 21.617188 -47.113281 19.171875 -52 C 16.722656 -56.894531 15.5 -62.8125 15.5 -69.75 Z M 21.21875 -69.75 C 21.21875 -60.363281 23.660156 -53.191406 28.546875 -48.234375 C 33.441406 -43.273438 40.582031 -40.796875 49.96875 -40.796875 C 59.351562 -40.796875 66.523438 -43.273438 71.484375 -48.234375 C 76.453125 -53.191406 78.9375 -60.363281 78.9375 -69.75 C 78.9375 -79.132812 76.453125 -86.304688 71.484375 -91.265625 C 66.523438 -96.234375 59.351562 -98.71875 49.96875 -98.71875 C 40.582031 -98.71875 33.441406 -96.234375 28.546875 -91.265625 C 23.660156 -86.304688 21.21875 -79.132812 21.21875 -69.75 Z M 28.34375 -6.125 C 24 -5.03125 20.429688 -3.019531 17.640625 -0.09375 C 14.847656 2.820312 13.453125 6.863281 13.453125 12.03125 C 13.453125 16.382812 14.503906 19.953125 16.609375 22.734375 C 18.722656 25.523438 21.445312 27.703125 24.78125 29.265625 C 28.113281 30.828125 31.882812 31.914062 36.09375 32.53125 C 40.3125 33.144531 44.53125 33.453125 48.75 33.453125 C 54.1875 33.453125 59.210938 33.007812 63.828125 32.125 C 68.453125 31.238281 72.429688 29.804688 75.765625 27.828125 C 79.097656 25.859375 81.710938 23.273438 83.609375 20.078125 C 85.515625 16.890625 86.46875 13.050781 86.46875 8.5625 C 86.46875 3.9375 85.347656 0.332031 83.109375 -2.25 C 80.867188 -4.832031 77.164062 -6.125 72 -6.125 Z M 28.34375 -6.125 "/></g></g></g><path stroke-linecap="butt" transform="matrix(0.74868, 0, 0, 0.74868, 77.002104, 518.140894)" fill="none" stroke-linejoin="miter" d="M 0.00240755 5.498906 L 314.399684 5.498906 " stroke="#ffffff" stroke-width="11" stroke-opacity="1" stroke-miterlimit="4"/></svg>